<svg width="34" height="41" viewBox="0 0 34 41" fill="none" xmlns="http://www.w3.org/2000/svg">
<path d="M13.482 29V21.848H12.48L12.822 20.6H14.73V29H13.482ZM18.9494 29.156C18.4174 29.156 17.9354 29.028 17.5034 28.772C17.0754 28.512 16.7354 28.168 16.4834 27.74C16.2354 27.308 16.1114 26.836 16.1114 26.324H17.3594C17.3594 26.616 17.4314 26.882 17.5754 27.122C17.7194 27.362 17.9114 27.554 18.1514 27.698C18.3914 27.838 18.6574 27.908 18.9494 27.908C19.2374 27.908 19.5014 27.838 19.7414 27.698C19.9814 27.554 20.1734 27.362 20.3174 27.122C20.4614 26.882 20.5334 26.616 20.5334 26.324C20.5334 26.032 20.4674 25.766 20.3354 25.526C20.2034 25.282 20.0054 25.088 19.7414 24.944C19.4774 24.796 19.1414 24.722 18.7334 24.722H16.6154L17.4674 20.6H21.5294V21.848H18.4814L18.1514 23.474L18.8774 23.486C19.4494 23.498 19.9514 23.63 20.3834 23.882C20.8194 24.13 21.1614 24.466 21.4094 24.89C21.6574 25.31 21.7814 25.788 21.7814 26.324C21.7814 26.712 21.7074 27.078 21.5594 27.422C21.4114 27.762 21.2074 28.062 20.9474 28.322C20.6914 28.582 20.3914 28.786 20.0474 28.934C19.7074 29.082 19.3414 29.156 18.9494 29.156Z" fill="white"/>
<path d="M16.2929 7.29289C15.9024 7.68342 15.9024 8.31658 16.2929 8.70711L22.6569 15.0711C23.0474 15.4616 23.6805 15.4616 24.0711 15.0711C24.4616 14.6805 24.4616 14.0474 24.0711 13.6569L18.4142 8L24.0711 2.34315C24.4616 1.95262 24.4616 1.31946 24.0711 0.928932C23.6805 0.538406 23.0474 0.538406 22.6569 0.928932L16.2929 7.29289ZM32.7326 21.0869L33.7159 20.9049L32.7326 21.0869ZM11.8504 39.1487L12.1723 38.2019L11.8504 39.1487ZM3.35343 32.3529L2.50052 32.875L3.35343 32.3529ZM1.16697 21.6946L2.15653 21.8386L1.16697 21.6946ZM6.97074 12.8459C7.38142 12.4766 7.415 11.8444 7.04573 11.4337C6.67646 11.023 6.04419 10.9894 5.63351 11.3587L6.97074 12.8459ZM17 9C20.5045 9 23.8984 10.2271 26.5926 12.4682L27.8716 10.9306C24.8182 8.39067 20.9718 7 17 7V9ZM26.5926 12.4682C29.2868 14.7093 31.1112 17.8231 31.7493 21.269L33.7159 20.9049C32.9927 16.9995 30.925 13.4706 27.8716 10.9306L26.5926 12.4682ZM31.7493 21.269C32.3873 24.7149 31.7987 28.2755 30.0855 31.3327L31.8303 32.3104C33.7719 28.8456 34.439 24.8103 33.7159 20.9049L31.7493 21.269ZM30.0855 31.3327C28.3724 34.3899 25.6428 36.7508 22.3707 38.0056L23.0868 39.873C26.7952 38.4509 29.8887 35.7752 31.8303 32.3104L30.0855 31.3327ZM22.3707 38.0056C19.0985 39.2603 15.4903 39.3298 12.1723 38.2019L11.5286 40.0955C15.289 41.3738 19.3783 41.295 23.0868 39.873L22.3707 38.0056ZM12.1723 38.2019C8.85425 37.074 6.03589 34.8199 4.20634 31.8309L2.50052 32.875C4.574 36.2625 7.76815 38.8171 11.5286 40.0955L12.1723 38.2019ZM4.20634 31.8309C2.3768 28.8418 1.65157 25.3066 2.15653 21.8386L0.177403 21.5505C-0.39489 25.4808 0.427034 29.4874 2.50052 32.875L4.20634 31.8309ZM2.15653 21.8386C2.6615 18.3707 4.36478 15.1891 6.97074 12.8459L5.63351 11.3587C2.68008 14.0143 0.749696 17.6201 0.177403 21.5505L2.15653 21.8386Z" fill="white"/>
</svg>
