<svg width="34" height="38" viewBox="0 0 34 38" fill="none" xmlns="http://www.w3.org/2000/svg">
<path d="M13.482 26V18.848H12.48L12.822 17.6H14.73V26H13.482ZM18.9494 26.156C18.4174 26.156 17.9354 26.028 17.5034 25.772C17.0754 25.512 16.7354 25.168 16.4834 24.74C16.2354 24.308 16.1114 23.836 16.1114 23.324H17.3594C17.3594 23.616 17.4314 23.882 17.5754 24.122C17.7194 24.362 17.9114 24.554 18.1514 24.698C18.3914 24.838 18.6574 24.908 18.9494 24.908C19.2374 24.908 19.5014 24.838 19.7414 24.698C19.9814 24.554 20.1734 24.362 20.3174 24.122C20.4614 23.882 20.5334 23.616 20.5334 23.324C20.5334 23.032 20.4674 22.766 20.3354 22.526C20.2034 22.282 20.0054 22.088 19.7414 21.944C19.4774 21.796 19.1414 21.722 18.7334 21.722H16.6154L17.4674 17.6H21.5294V18.848H18.4814L18.1514 20.474L18.8774 20.486C19.4494 20.498 19.9514 20.63 20.3834 20.882C20.8194 21.13 21.1614 21.466 21.4094 21.89C21.6574 22.31 21.7814 22.788 21.7814 23.324C21.7814 23.712 21.7074 24.078 21.5594 24.422C21.4114 24.762 21.2074 25.062 20.9474 25.322C20.6914 25.582 20.3914 25.786 20.0474 25.934C19.7074 26.082 19.3414 26.156 18.9494 26.156Z" fill="white"/>
<path d="M34 21C34 20.4477 33.5523 20 33 20C32.4477 20 32 20.4477 32 21H34ZM19.9131 36.7326L20.0951 37.7159L19.9131 36.7326ZM1.85134 15.8504L2.79813 16.1723L1.85134 15.8504ZM8.64709 7.35343L8.12503 6.50052L8.64709 7.35343ZM19.3054 5.16697L19.1614 6.15653L19.3054 5.16697ZM28.8447 11.3007C29.3962 11.33 29.867 10.9067 29.8963 10.3551L30.3735 1.36781C30.4028 0.816302 29.9795 0.345477 29.428 0.316192C28.8765 0.286906 28.4056 0.710251 28.3763 1.26176L27.9521 9.2505L19.9634 8.8263C19.4119 8.79702 18.9411 9.22036 18.9118 9.77187C18.8825 10.3234 19.3058 10.7942 19.8573 10.8235L28.8447 11.3007ZM32 21C32 24.5045 30.7729 27.8984 28.5318 30.5926L30.0694 31.8716C32.6093 28.8182 34 24.9718 34 21H32ZM28.5318 30.5926C26.2907 33.2868 23.1769 35.1112 19.731 35.7493L20.0951 37.7159C24.0005 36.9927 27.5294 34.925 30.0694 31.8716L28.5318 30.5926ZM19.731 35.7493C16.2851 36.3873 12.7245 35.7987 9.66729 34.0855L8.6896 35.8303C12.1544 37.7719 16.1897 38.439 20.0951 37.7159L19.731 35.7493ZM9.66729 34.0855C6.61008 32.3724 4.24921 29.6428 2.99444 26.3707L1.12703 27.0868C2.5491 30.7952 5.22476 33.8887 8.6896 35.8303L9.66729 34.0855ZM2.99444 26.3707C1.73967 23.0985 1.67022 19.4903 2.79813 16.1723L0.904548 15.5286C-0.373756 19.289 -0.295041 23.3783 1.12703 27.0868L2.99444 26.3707ZM2.79813 16.1723C3.92604 12.8543 6.18013 10.0359 9.16915 8.20634L8.12503 6.50052C4.73748 8.574 2.18285 11.7682 0.904548 15.5286L2.79813 16.1723ZM9.16915 8.20634C12.1582 6.3768 15.6934 5.65157 19.1614 6.15653L19.4495 4.1774C15.5192 3.60511 11.5126 4.42703 8.12503 6.50052L9.16915 8.20634ZM19.1614 6.15653C22.6293 6.6615 25.8109 8.36478 28.1541 10.9707L29.6413 9.63351C26.9857 6.68008 23.3799 4.7497 19.4495 4.1774L19.1614 6.15653Z" fill="white"/>
</svg>
