<svg width="18" height="21" viewBox="0 0 18 21" fill="none" xmlns="http://www.w3.org/2000/svg">
<path d="M14.5989 9.29089H2.69986C1.76105 9.29089 1 10.1626 1 11.238V18.0529C1 19.1283 1.76105 20 2.69986 20H14.5989C15.5377 20 16.2988 19.1283 16.2988 18.0529V11.238C16.2988 10.1626 15.5377 9.29089 14.5989 9.29089Z" stroke="white" stroke-width="2" stroke-linecap="round" stroke-linejoin="round"/>
<path d="M4.03516 9.14289V5.52383C4.03516 4.32403 4.5213 3.17338 5.38665 2.325C6.252 1.47662 7.42567 1 8.64946 1C9.87325 1 11.0469 1.47662 11.9123 2.325C12.7776 3.17338 13.2638 4.32403 13.2638 5.52383V9.14289" stroke="white" stroke-width="2" stroke-linecap="round" stroke-linejoin="round"/>
</svg>
