<svg width="50" height="17" viewBox="0 0 50 17" fill="none" xmlns="http://www.w3.org/2000/svg">
<path d="M7.86508 0.0226336C9.67936 -0.114041 11.5363 0.371515 13.0443 1.39144C14.3248 2.25157 15.3478 3.48986 15.9433 4.91364C16.7746 6.8533 16.7788 9.12077 15.9931 11.0758C15.3971 12.5988 14.3361 13.9296 13.0017 14.8719C11.5116 15.9242 9.67576 16.4925 7.84966 16.4221C5.89614 16.3738 3.97036 15.5897 2.544 14.2538C1.31393 13.1116 0.460996 11.5717 0.146541 9.92232C-0.201826 8.13938 0.078203 6.24443 0.909043 4.63053C1.68336 3.10502 2.93605 1.83075 4.44153 1.01995C5.49485 0.450128 6.66994 0.106899 7.86508 0.0226336ZM8.07215 0.283139C6.79943 0.35199 5.58117 0.889441 4.60286 1.69305C3.34761 2.72479 2.45666 4.16193 1.99062 5.71109C1.35709 7.81002 1.46191 10.1628 2.44278 12.1394C3.11639 13.5165 4.26169 14.6962 5.705 15.2547C6.59647 15.6113 7.58453 15.6966 8.53047 15.5471C9.52984 15.3857 10.4712 14.9408 11.2706 14.3257C12.5074 13.3726 13.4076 12.0223 13.9209 10.5553C14.6069 8.59668 14.6279 6.39189 13.8947 4.44299C13.3752 3.06545 12.4427 1.81791 11.1725 1.05181C10.2471 0.491233 9.1527 0.214287 8.07215 0.283139ZM10.466 0.467084C10.5898 0.536963 10.7214 0.591427 10.8503 0.651543C11.6781 1.05797 12.3974 1.6689 12.9673 2.39184C14.1038 3.83463 14.6377 5.68848 14.6423 7.50996C14.6346 9.47068 14.017 11.4396 12.8362 13.0119C11.897 14.262 10.5698 15.2593 9.03966 15.6416C8.13843 15.8754 7.18016 15.8841 6.27893 15.6473C5.25952 15.3878 4.32592 14.8293 3.58705 14.0842C2.49416 12.9944 1.81798 11.5347 1.54052 10.0271C1.15208 7.92409 1.53538 5.6931 2.57792 3.82898C3.36457 2.42421 4.56433 1.22393 6.04823 0.571388C3.78641 1.23216 1.86268 2.94111 0.906474 5.09194C0.117253 6.8348 -0.0204496 8.86643 0.54372 10.6961C1.03596 12.326 2.08825 13.778 3.47761 14.7609C4.887 15.7685 6.63346 16.2844 8.36348 16.2279C9.91623 16.1832 11.4515 15.6827 12.7386 14.8133C14.0596 13.9275 15.116 12.6522 15.7367 11.1868C16.5696 9.24665 16.5963 6.97353 15.7773 5.02412C15.1351 3.47136 13.9728 2.14315 12.5218 1.29638C11.88 0.927977 11.1931 0.617118 10.466 0.467084Z" fill="#FAF1DC"/>
<path d="M6.93975 2.48893C8.7674 2.33119 10.6197 3.08701 11.8888 4.39518C13.178 5.70079 13.8973 7.58187 13.6944 9.4167C13.5387 11.0558 12.5999 12.606 11.1957 13.4743C10.1629 14.1197 8.91281 14.4079 7.70174 14.2861C6.13769 14.1495 4.65225 13.3803 3.59738 12.2237C2.92839 11.4915 2.41972 10.6072 2.15202 9.651C1.82318 8.54887 1.83397 7.34654 2.17257 6.248C2.61856 4.81549 3.68679 3.58952 5.05713 2.97243C5.65059 2.70524 6.28926 2.53055 6.93975 2.48893ZM6.68798 2.71038C5.61154 2.84757 4.57569 3.31617 3.78133 4.05864C3.01215 4.76667 2.47213 5.71774 2.24656 6.73818C2.05491 7.56183 2.06416 8.42864 2.2517 9.25177C2.63449 10.9916 3.81627 12.5273 5.37981 13.3726C6.90995 14.2224 8.83779 14.3668 10.4471 13.6495C11.3241 13.2595 12.0892 12.6203 12.6241 11.8229C13.1857 10.9941 13.495 9.99834 13.5228 8.99897C13.5911 7.26227 12.8301 5.53842 11.5687 4.35613C10.2852 3.13377 8.455 2.48071 6.68798 2.71038Z" fill="#FAF1DC"/>
<path d="M6.73722 3.37274C8.51143 3.08808 10.3406 3.91533 11.4576 5.28927C12.5695 6.62622 13.0602 8.50267 12.5947 10.1952C12.343 11.1442 11.7855 12.0167 11.0039 12.6163C10.2132 13.2308 9.20405 13.5447 8.20519 13.5191C6.70023 13.4851 5.26309 12.7108 4.3151 11.5568C3.70365 10.82 3.27924 9.92851 3.09581 8.98874C2.89696 7.96317 3.00024 6.87336 3.43082 5.91818C3.75041 5.2122 4.24933 4.58277 4.88286 4.1337C5.42905 3.73703 6.07234 3.48218 6.73722 3.37274ZM7.04911 3.53356C5.96136 3.6353 4.91626 4.16607 4.22415 5.01592C3.52844 5.84933 3.18162 6.94427 3.19755 8.0238C3.20628 9.02163 3.51303 10.0082 4.04483 10.8503C4.85409 12.1369 6.22392 13.0988 7.74738 13.2817C8.75189 13.4199 9.8083 13.1907 10.652 12.625C11.3318 12.1734 11.8672 11.5152 12.1883 10.7665C12.5747 9.88689 12.6456 8.89215 12.4878 7.95084C12.3229 7.02854 11.9113 6.15299 11.3169 5.42954C10.3016 4.1748 8.67636 3.38198 7.04911 3.53356Z" fill="#FAF1DC"/>
<path d="M30.3989 4.18034C30.5474 4.13564 30.7098 4.1377 30.8588 4.17983C30.8917 4.32781 30.8947 4.48606 30.8516 4.6325C30.7046 4.66076 30.5515 4.65973 30.4051 4.6325C30.3588 4.48658 30.366 4.32781 30.3989 4.18034Z" fill="#FAF1DC"/>
<path d="M36.3551 4.17829C36.5015 4.13256 36.6665 4.13667 36.8114 4.186C36.8396 4.33192 36.8391 4.48453 36.8093 4.63045C36.6618 4.65922 36.5087 4.66128 36.3612 4.63507C36.2991 4.49275 36.3052 4.32319 36.3551 4.17829Z" fill="#FAF1DC"/>
<path d="M7.66624 4.56372C8.33061 4.48254 9.00884 4.66495 9.57198 5.01794C10.2877 5.46393 10.8262 6.16169 11.1458 6.93653C11.507 7.79768 11.6031 8.76725 11.415 9.68184C11.2558 10.4459 10.8807 11.1786 10.2908 11.6991C9.67372 12.2535 8.79818 12.5248 7.97864 12.3681C7.26752 12.2468 6.62371 11.8537 6.13353 11.3322C4.90602 10.0153 4.56639 7.93127 5.35767 6.3071C5.78722 5.40279 6.653 4.6783 7.66624 4.56372ZM7.66367 4.76514C6.94947 4.85403 6.30103 5.27176 5.87354 5.84313C5.38233 6.49362 5.13621 7.31469 5.13416 8.12652C5.11309 9.04779 5.38747 9.97523 5.90694 10.7367C6.32159 11.3379 6.90836 11.8347 7.60613 12.0701C8.32393 12.3151 9.15374 12.2345 9.79498 11.8224C10.5457 11.3595 11.0199 10.544 11.2105 9.69829C11.5435 8.17123 11.0364 6.44634 9.81913 5.43772C9.22516 4.946 8.43799 4.66032 7.66367 4.76514Z" fill="#FAF1DC"/>
<path d="M38.4418 4.47473C38.5646 4.40177 38.7229 4.32264 38.8642 4.39149C38.9104 4.83954 38.8508 5.29221 38.8914 5.74077C39.212 5.76698 39.5368 5.71354 39.8553 5.76852C39.8862 5.88721 39.8867 6.01412 39.8538 6.13281C39.5368 6.19139 39.2115 6.13487 38.8919 6.1621C38.8652 7.32332 38.8827 8.48711 38.8837 9.64937C38.896 9.86465 38.913 10.1334 39.1201 10.2572C39.3004 10.3261 39.5095 10.2649 39.6858 10.3564C39.7073 10.4545 39.713 10.5563 39.7037 10.657C39.5368 10.7885 39.3004 10.7186 39.1093 10.6862C38.7229 10.6128 38.4331 10.25 38.4315 9.859C38.4161 8.62841 38.4336 7.39731 38.4238 6.16672C38.1767 6.13949 37.927 6.17597 37.6803 6.1472C37.5879 6.04855 37.6305 5.89543 37.6433 5.77468C37.8961 5.70532 38.1654 5.77314 38.4238 5.73666C38.4439 5.31636 38.3992 4.89349 38.4418 4.47473Z" fill="#FAF1DC"/>
<path d="M20.4881 6.08711C20.9726 5.618 21.7551 5.54298 22.3645 5.7891C22.7643 5.95403 23.0669 6.31319 23.1949 6.72219C23.1625 6.84961 23.0011 6.91898 22.8799 6.88866C22.7627 6.72527 22.68 6.53259 22.5192 6.40414C22.1009 6.02186 21.4232 5.9936 20.9526 6.29366C20.615 6.51306 20.4711 7.03767 20.7404 7.36343C20.9849 7.65528 21.3595 7.79092 21.7181 7.88187C22.2016 7.99748 22.7052 8.16807 23.0515 8.54366C23.4579 8.97938 23.4548 9.71208 23.0787 10.1658C22.7889 10.5249 22.3316 10.7073 21.8821 10.7572C21.3477 10.8158 20.765 10.6837 20.3755 10.2958C20.1777 10.0872 20.003 9.81381 20.0082 9.51786C20.1032 9.44541 20.2183 9.39403 20.3396 9.39454C20.4413 9.57181 20.4834 9.78658 20.636 9.93302C21.1601 10.4484 22.0794 10.4566 22.6266 9.97361C22.8932 9.74908 22.9708 9.34265 22.8198 9.03128C22.7108 8.82215 22.5171 8.67006 22.308 8.56833C21.9047 8.36794 21.4417 8.34071 21.0373 8.14391C20.6802 7.97949 20.3288 7.72516 20.1911 7.34185C20.0498 6.9123 20.1731 6.40979 20.4881 6.08711Z" fill="#FAF1DC"/>
<path d="M45.6778 6.40778C46.1484 5.9325 46.8118 5.6463 47.4833 5.65555C48.2094 5.65196 48.9287 6.00443 49.3696 6.58196C49.423 6.64927 49.4759 6.71812 49.534 6.78338C49.5627 6.44786 49.5047 6.10668 49.5658 5.77476C49.6984 5.74958 49.8366 5.7501 49.9697 5.7763C50.0113 5.95151 49.9933 6.13289 49.9964 6.31118C49.9944 7.32186 49.9959 8.33202 49.9954 9.34269C49.9774 9.77635 50.0319 10.2157 49.9676 10.6452C49.8371 10.6755 49.6994 10.676 49.5694 10.6452C49.5021 10.3138 49.5638 9.9716 49.5299 9.63659C49.4035 9.7707 49.3022 9.92639 49.1733 10.0584C48.7196 10.5147 48.0758 10.7747 47.4314 10.7547C46.7897 10.7572 46.1669 10.4777 45.7081 10.0363C45.2159 9.56723 44.9189 8.89362 44.924 8.2123C44.9153 7.54126 45.2025 6.87843 45.6778 6.40778ZM47.0389 6.13803C46.2851 6.31272 45.6629 6.93136 45.4604 7.67536C45.3269 8.20202 45.4034 8.77852 45.6762 9.24969C46.0493 9.92125 46.8123 10.3821 47.5897 10.3143C48.604 10.2604 49.4908 9.37815 49.5561 8.36593C49.6357 7.52995 49.1265 6.70476 48.3907 6.32711C47.9802 6.10874 47.4931 6.03629 47.0389 6.13803Z" fill="#FAF1DC"/>
<path d="M25.2161 6.34507C25.659 5.92117 26.2643 5.66991 26.8788 5.67043C27.6239 5.64833 28.3581 5.99567 28.8411 6.5583C29.2383 7.01097 29.4577 7.61008 29.4597 8.21176C29.4685 8.92494 29.1478 9.62989 28.6196 10.1062C28.1885 10.4993 27.6192 10.7402 27.0366 10.767C26.4051 10.8014 25.7757 10.5594 25.2973 10.153C25.1128 9.99881 24.9895 9.78866 24.84 9.60369C24.8529 10.3215 24.8405 11.0398 24.8472 11.7576C24.8467 11.8917 24.8513 12.0268 24.8261 12.1594C24.6905 12.1748 24.5523 12.1764 24.4171 12.1553C24.4002 12.0751 24.3956 11.9934 24.3945 11.9128C24.3966 9.94229 24.3966 7.97181 24.3945 6.00132C24.3986 5.92476 24.392 5.8405 24.4408 5.77679C24.5723 5.75521 24.708 5.75829 24.8395 5.7809C24.8945 6.11128 24.8359 6.44835 24.8734 6.7813C24.9906 6.63846 25.0841 6.47558 25.2161 6.34507ZM26.5387 6.13903C25.5907 6.30756 24.8195 7.18773 24.8174 8.15832C24.7696 9.20908 25.6231 10.209 26.6697 10.3194C27.2811 10.396 27.9106 10.1637 28.3442 9.73008C28.7553 9.32057 28.9958 8.7415 28.9809 8.15986C28.9659 7.41586 28.5251 6.6996 27.87 6.34815C27.4692 6.12053 26.9893 6.05785 26.5387 6.13903Z" fill="#FAF1DC"/>
<path d="M30.4139 5.80247C30.5429 5.73824 30.712 5.7367 30.8404 5.80298C30.8728 7.27301 30.8425 8.74509 30.8553 10.2156C30.8532 10.3626 30.8651 10.5136 30.8229 10.657C30.6935 10.6734 30.5624 10.6734 30.434 10.6555C30.4016 10.564 30.4001 10.4664 30.399 10.3708C30.4026 9.05184 30.4001 7.73288 30.4006 6.41391C30.4026 6.20993 30.3877 6.00491 30.4139 5.80247Z" fill="#FAF1DC"/>
<path d="M33.6884 5.77934C34.3055 5.64009 35.0099 5.81222 35.4508 6.27671C35.4692 6.42469 35.3146 6.52745 35.2021 6.59271C34.9488 6.48018 34.7273 6.29932 34.4555 6.22687C33.8451 6.03676 33.1227 6.35687 32.8421 6.93028C32.7162 7.16561 32.6772 7.43537 32.6782 7.69895C32.6777 8.46968 32.6782 9.2404 32.6782 10.0106C32.6736 10.2228 32.6972 10.4386 32.6546 10.6488C32.521 10.6739 32.3828 10.6745 32.2492 10.6513C32.2034 10.4931 32.2219 10.3261 32.2194 10.1642C32.2219 8.91413 32.2199 7.66401 32.2204 6.4139C32.2224 6.21094 32.2081 6.00645 32.2353 5.80503C32.3725 5.77471 32.5251 5.75981 32.6566 5.82353C32.6988 6.05217 32.6674 6.28647 32.6844 6.51769C32.9315 6.17498 33.2675 5.8785 33.6884 5.77934Z" fill="#FAF1DC"/>
<path d="M36.366 5.77937C36.4971 5.75316 36.6332 5.75162 36.7658 5.77474C36.7992 5.84462 36.8007 5.92375 36.8038 6.00031C36.8017 7.33725 36.8028 8.67369 36.8028 10.0106C36.7935 10.2239 36.8331 10.4448 36.7689 10.6524C36.6353 10.6755 36.4976 10.6745 36.3655 10.6452C36.3321 10.4525 36.3486 10.2562 36.3465 10.062C36.347 8.82886 36.3475 7.5957 36.3465 6.36255C36.3486 6.16832 36.3321 5.97205 36.366 5.77937Z" fill="#FAF1DC"/>
<path d="M40.294 5.81327C40.4445 5.69972 40.7764 5.69252 40.8294 5.92066C41.3673 7.23603 41.8842 8.56116 42.4448 9.86676C42.9437 8.69115 43.4066 7.50013 43.8891 6.31784C43.9672 6.14006 44.0181 5.94789 44.125 5.78398C44.2493 5.71102 44.4117 5.74699 44.5494 5.76137C44.6069 5.86208 44.5561 5.97307 44.5196 6.07121C43.7062 8.05145 42.9005 10.0358 42.0872 12.0161C42.0245 12.2159 41.7604 12.1882 41.6042 12.1332C41.5631 12.0757 41.5867 12.0032 41.6047 11.9431C41.783 11.4488 42.0101 10.971 42.1755 10.4731C42.0132 10.0045 41.7958 9.55488 41.615 9.09296C41.1921 8.07817 40.7754 7.06081 40.3494 6.04705C40.3196 5.97204 40.2934 5.89445 40.294 5.81327Z" fill="#FAF1DC"/>
<path d="M7.45415 6.65598C8.22025 6.48026 9.0326 6.97609 9.30749 7.69595C9.64301 8.46821 9.3229 9.48557 8.54396 9.84883C7.79481 10.2301 6.81342 9.85757 6.44194 9.12024C6.05709 8.45948 6.16859 7.53923 6.7456 7.02439C6.94188 6.83839 7.19159 6.71456 7.45415 6.65598ZM7.45364 6.85329C6.81702 6.9915 6.38285 7.64713 6.40546 8.2817C6.41111 8.96918 6.90642 9.63817 7.5898 9.78255C8.26238 9.96752 8.98841 9.48248 9.17492 8.83097C9.40973 8.11779 9.04184 7.25612 8.35127 6.95143C8.07638 6.80961 7.75268 6.79009 7.45364 6.85329Z" fill="#FAF1DC"/>
<path d="M7.6596 7.3615C8.16982 7.22945 8.72115 7.70781 8.69289 8.22985C8.66977 8.54379 8.51562 8.87263 8.22275 9.01907C7.7896 9.28574 7.16172 9.01444 7.0199 8.53659C6.80718 8.05618 7.16018 7.46734 7.6596 7.3615Z" fill="#FAF1DC"/>
</svg>
