<svg width="97" height="27" viewBox="0 0 97 27" fill="none" xmlns="http://www.w3.org/2000/svg">
<path d="M33.7528 0.104045C34.2183 -0.0376558 34.7274 -0.0311424 35.1945 0.102415C35.2976 0.571492 35.3073 1.07314 35.172 1.53734C34.7113 1.62692 34.2312 1.62366 33.7721 1.53734C33.6272 1.07477 33.6497 0.571494 33.7528 0.104045Z" fill="#FAF1DC"/>
<path d="M53.0301 0.100953C53.4852 -0.043633 53.9977 -0.0306325 54.448 0.125326C54.5358 0.586702 54.5342 1.06919 54.4416 1.53057C53.9833 1.62154 53.5075 1.62805 53.0493 1.54519C52.8561 1.09519 52.8753 0.55908 53.0301 0.100953Z" fill="#FAF1DC"/>
<path d="M59.5379 1.9484C59.9306 1.71881 60.4367 1.46982 60.8886 1.68647C61.0365 3.09636 60.8458 4.52081 60.9757 5.93231C62.001 6.01477 63.0394 5.84662 64.0582 6.01962C64.1568 6.39311 64.1584 6.79248 64.0532 7.16597C63.0394 7.35029 61.9993 7.17243 60.9773 7.25812C60.8919 10.9122 60.9477 14.5743 60.951 18.2316C60.9904 18.9091 61.0447 19.7547 61.7068 20.1444C62.2836 20.361 62.9523 20.1686 63.5159 20.4564C63.5849 20.7652 63.603 21.0854 63.5734 21.4023C63.0394 21.8162 62.2836 21.5963 61.6723 21.4945C60.4367 21.2632 59.51 20.1217 59.505 18.8913C59.4558 15.019 59.5116 11.145 59.4804 7.27267C58.6901 7.18698 57.8915 7.30178 57.1028 7.21123C56.807 6.9008 56.9434 6.41898 56.9845 6.03902C57.7929 5.82075 58.6539 6.03417 59.4804 5.91938C59.5445 4.5968 59.4015 3.26613 59.5379 1.9484Z" fill="#FAF1DC"/>
<path d="M1.60787 6.24257C3.23085 4.69979 5.85205 4.45309 7.89325 5.26249C9.23225 5.80491 10.246 6.98607 10.6745 8.33113C10.5661 8.7502 10.0257 8.97832 9.6195 8.87862C9.2271 8.34127 8.95 7.7076 8.4113 7.28516C7.01034 6.02796 4.74023 5.93502 3.16372 6.92185C2.03297 7.64339 1.55107 9.36866 2.45291 10.44C3.27215 11.3998 4.52682 11.8459 5.72814 12.145C7.34768 12.5252 9.03434 13.0862 10.1943 14.3214C11.5557 15.7544 11.5454 18.164 10.2856 19.6561C9.31487 20.8372 7.78311 21.4371 6.27716 21.601C4.48724 21.7936 2.53553 21.3594 1.23095 20.0836C0.568332 19.3975 -0.0168405 18.4986 0.000370346 17.5252C0.318771 17.287 0.704295 17.118 1.11047 17.1197C1.45124 17.7027 1.59237 18.409 2.10353 18.8906C3.85904 20.5854 6.93806 20.6125 8.77101 19.0241C9.66425 18.2856 9.92414 16.949 9.41814 15.925C9.05327 15.2373 8.40442 14.7371 7.70394 14.4025C6.35289 13.7435 4.8022 13.6539 3.4477 13.0068C2.25155 12.466 1.07433 11.6296 0.613075 10.369C0.139778 8.95635 0.552842 7.30375 1.60787 6.24257Z" fill="#FAF1DC"/>
<path d="M83.3484 7.2935C84.835 5.72476 86.9302 4.78013 89.0513 4.81065C91.3444 4.79878 93.6165 5.9622 95.0089 7.86843C95.1777 8.09059 95.3449 8.31784 95.5282 8.53323C95.6191 7.42578 95.4358 6.29968 95.6289 5.20411C96.0476 5.12101 96.4841 5.12271 96.9045 5.2092C97.0359 5.78752 96.9791 6.38618 96.9888 6.97467C96.9824 10.3106 96.9872 13.6448 96.9856 16.9807C96.9288 18.412 97.1008 19.8621 96.898 21.2799C96.4858 21.3799 96.0508 21.3816 95.6402 21.2799C95.4276 20.186 95.6224 19.0565 95.5153 17.9507C95.116 18.3934 94.7963 18.9072 94.389 19.3431C92.956 20.8491 90.9225 21.7072 88.8874 21.6411C86.8604 21.6496 84.8934 20.727 83.4442 19.2702C81.8895 17.7218 80.9514 15.4984 80.9677 13.2496C80.9401 11.0347 81.8473 8.84698 83.3484 7.2935ZM87.6475 6.40314C85.2667 6.97975 83.3014 9.02165 82.662 11.4774C82.24 13.2157 82.4818 15.1185 83.3436 16.6737C84.5218 18.8903 86.9318 20.4115 89.3872 20.1877C92.5908 20.0096 95.3919 17.0977 95.598 13.7567C95.8496 10.9974 94.2413 8.27375 91.9173 7.02724C90.6206 6.30647 89.0821 6.06734 87.6475 6.40314Z" fill="#FAF1DC"/>
<path d="M16.3587 7.05919C17.8307 5.64799 19.8424 4.81154 21.8847 4.81325C24.3608 4.7397 26.8011 5.89602 28.4063 7.76908C29.7263 9.27607 30.4555 11.2706 30.4623 13.2736C30.4913 15.6479 29.4258 17.9948 27.6703 19.5804C26.2376 20.889 24.3455 21.6913 22.409 21.7802C20.3103 21.8948 18.2184 21.0892 16.6285 19.7361C16.0155 19.2229 15.6057 18.5233 15.1087 17.9075C15.1514 20.2972 15.1104 22.6885 15.1326 25.0782C15.1309 25.5246 15.1463 25.9745 15.0626 26.4158C14.6118 26.4671 14.1524 26.4723 13.7033 26.4021C13.647 26.1353 13.6316 25.8633 13.6282 25.5947C13.635 19.0348 13.635 12.4748 13.6282 5.91484C13.6418 5.65996 13.6196 5.37943 13.7819 5.16732C14.219 5.09548 14.6699 5.10575 15.107 5.18101C15.2897 6.2809 15.0951 7.40302 15.2197 8.51146C15.6091 8.03593 15.9199 7.49368 16.3587 7.05919ZM20.7543 6.37327C17.6036 6.93433 15.0404 9.86451 15.0336 13.0957C14.8748 16.5938 17.7112 19.9226 21.1897 20.2903C23.2218 20.5452 25.3137 19.772 26.755 18.3283C28.1211 16.965 28.9203 15.0372 28.8708 13.1009C28.8212 10.624 27.3561 8.23948 25.1788 7.06946C23.8468 6.31168 22.2519 6.10301 20.7543 6.37327Z" fill="#FAF1DC"/>
<path d="M33.7246 4.97668C34.1763 4.75671 34.7684 4.75143 35.2183 4.97844C35.3316 10.0132 35.2255 15.0549 35.2704 20.0914C35.2632 20.5947 35.3046 21.1121 35.1571 21.6031C34.7036 21.6594 34.2447 21.6594 33.7948 21.5978C33.6814 21.2845 33.676 20.9502 33.6724 20.6229C33.685 16.1055 33.676 11.5882 33.6778 7.07082C33.685 6.37218 33.6328 5.67003 33.7246 4.97668Z" fill="#FAF1DC"/>
<path d="M44.3837 4.96996C46.5249 4.49503 48.9692 5.08212 50.4989 6.66638C50.5631 7.1711 50.0264 7.5216 49.636 7.74416C48.757 7.36037 47.9886 6.74349 47.0455 6.49638C44.9275 5.84796 42.4208 6.93977 41.4474 8.89556C41.0106 9.69821 40.8751 10.6183 40.8786 11.5173C40.8768 14.1461 40.8786 16.7748 40.8786 19.4018C40.8626 20.1256 40.9446 20.8617 40.7966 21.5784C40.3331 21.6643 39.8535 21.6661 39.3899 21.5872C39.2313 21.0474 39.2954 20.4779 39.2865 19.9258C39.2954 15.662 39.2883 11.3981 39.2901 7.1343C39.2972 6.44206 39.2473 5.74456 39.3418 5.05758C39.8178 4.95419 40.3473 4.90336 40.8037 5.12067C40.9499 5.90054 40.8412 6.69968 40.9 7.48831C41.7576 6.31939 42.9235 5.30819 44.3837 4.96996Z" fill="#FAF1DC"/>
<path d="M52.9848 4.88153C53.4392 4.79169 53.9115 4.7864 54.3713 4.86567C54.4871 5.10526 54.4925 5.37656 54.5032 5.63905C54.496 10.2229 54.4996 14.805 54.4996 19.3889C54.4675 20.12 54.6048 20.8775 54.382 21.5892C53.9186 21.6685 53.441 21.6649 52.983 21.5645C52.8671 20.9039 52.9242 20.2309 52.917 19.565C52.9188 15.337 52.9206 11.109 52.917 6.88102C52.9242 6.21511 52.8671 5.54216 52.9848 4.88153Z" fill="#FAF1DC"/>
<path d="M65.7356 5.06967C66.2148 4.68786 67.2714 4.66367 67.4398 5.43075C69.1522 9.85354 70.7976 14.3091 72.5819 18.6991C74.17 14.7462 75.6436 10.7415 77.1794 6.76622C77.428 6.16846 77.5899 5.52231 77.9301 4.97119C78.3259 4.72586 78.8427 4.8468 79.281 4.89517C79.4642 5.23379 79.3023 5.60697 79.1862 5.93695C76.5971 12.5953 74.0326 19.2675 71.4436 25.9259C71.2441 26.5979 70.4034 26.5046 69.9062 26.3198C69.7754 26.1263 69.8506 25.8827 69.9078 25.6805C70.4754 24.0185 71.1983 22.4118 71.7249 20.7377C71.2081 19.1621 70.5163 17.6504 69.9406 16.0973C68.5945 12.6852 67.2681 9.2644 65.9123 5.85575C65.8174 5.60351 65.734 5.34264 65.7356 5.06967Z" fill="#FAF1DC"/>
</svg>
